<svg width="43" height="41" viewBox="0 0 43 41" fill="none" xmlns="http://www.w3.org/2000/svg">
<path d="M41.4643 35.1429H1.53571C1.12842 35.1429 0.737803 35.2971 0.4498 35.5717C0.161798 35.8463 0 36.2188 0 36.6071L0 39.5357C0 39.9241 0.161798 40.2965 0.4498 40.5711C0.737803 40.8457 1.12842 41 1.53571 41H41.4643C41.8716 41 42.2622 40.8457 42.5502 40.5711C42.8382 40.2965 43 39.9241 43 39.5357V36.6071C43 36.2188 42.8382 35.8463 42.5502 35.5717C42.2622 35.2971 41.8716 35.1429 41.4643 35.1429ZM41.4643 23.4286H1.53571C1.12842 23.4286 0.737803 23.5828 0.4498 23.8575C0.161798 24.1321 0 24.5045 0 24.8929L0 27.8214C0 28.2098 0.161798 28.5822 0.4498 28.8568C0.737803 29.1314 1.12842 29.2857 1.53571 29.2857H41.4643C41.8716 29.2857 42.2622 29.1314 42.5502 28.8568C42.8382 28.5822 43 28.2098 43 27.8214V24.8929C43 24.5045 42.8382 24.1321 42.5502 23.8575C42.2622 23.5828 41.8716 23.4286 41.4643 23.4286ZM41.4643 11.7143H1.53571C1.12842 11.7143 0.737803 11.8686 0.4498 12.1432C0.161798 12.4178 0 12.7902 0 13.1786L0 16.1071C0 16.4955 0.161798 16.8679 0.4498 17.1425C0.737803 17.4172 1.12842 17.5714 1.53571 17.5714H41.4643C41.8716 17.5714 42.2622 17.4172 42.5502 17.1425C42.8382 16.8679 43 16.4955 43 16.1071V13.1786C43 12.7902 42.8382 12.4178 42.5502 12.1432C42.2622 11.8686 41.8716 11.7143 41.4643 11.7143ZM41.4643 0H1.53571C1.12842 0 0.737803 0.154272 0.4498 0.428879C0.161798 0.703486 0 1.07593 0 1.46429L0 4.39286C0 4.78121 0.161798 5.15366 0.4498 5.42826C0.737803 5.70287 1.12842 5.85714 1.53571 5.85714H41.4643C41.8716 5.85714 42.2622 5.70287 42.5502 5.42826C42.8382 5.15366 43 4.78121 43 4.39286V1.46429C43 1.07593 42.8382 0.703486 42.5502 0.428879C42.2622 0.154272 41.8716 0 41.4643 0Z" fill="url(#paint0_linear_4_62)"/>
<defs>
<linearGradient id="paint0_linear_4_62" x1="21.5" y1="-2.34421e-07" x2="14" y2="41" gradientUnits="userSpaceOnUse">
<stop offset="0.458333" stop-color="#E19E1D"/>
<stop offset="0.640625" stop-color="#231E1B"/>
</linearGradient>
</defs>
</svg>
